:SAMPLES-PER-SECOND 30
:FULLY-SPECIFIED
:DEGREES
156
root  21.181 34.3828 -20.4868 -2.55592 -70.8658 -10.1304
RightUpLeg  -0.616885 -15.0954 -1.72749
RightLeg  71.6785 -0.723315 -3.1791
RightFoot  -10.8898 -0.105647 14.2544
RightToes  0.000482159 0.542163 -0.142577
Spine  36.49 2.63134 10.8889
Spine1  -12.1351 6.0794 -3.56292
HEad  -52.2393 7.25019 -11.2188
LeftShoulder1  11.0678 -15.6254 -50.5122
LeftArm  -11.187 32.8845 -17.6084
LeftForeArm  51.1013 -62.376 -16.4931
LeftHand  -0.25398 0.0180481 5.50724
RightShoulder  5.84436 9.62307 38.4582
RightArm  -8.20071 -5.61024 27.9264
RightForeArm  6.86747 57.1801 17.1088
RightHand  -2.79231 7.3806 -25.387
LeftUpLeg  -34.2197 16.6966 -14.379
LeftLeg  34.6819 -2.78561 -1.67863
LeftFoot  13.1334 -3.12157 14.4334
LeftToes  1.06246e-005 4.65855e-005 -8.18502e-006
157
root  22.7243 34.6085 -20.4234 -7.72554 -71.4662 -2.11516
RightUpLeg  2.78287 -7.18847 0.768895
RightLeg  61.0383 -3.47423 -7.2101
RightFoot  -27.862 1.99493 15.3879
RightToes  0.000482159 0.542163 -0.142577
Spine  31.7066 3.27826 12.0021
Spine1  -11.477 6.90035 -10.0313
HEad  -51.7853 2.226 -9.31902
LeftShoulder1  11.2328 -16.1192 -49.9792
LeftArm  -13.3887 33.4497 -18.0669
LeftForeArm  53.354 -64.7345 -18.3492
LeftHand  -0.25398 0.0180481 5.50724
RightShoulder  6.19825 9.93085 39.995
RightArm  -6.48954 1.14374 29.0924
RightForeArm  7.43657 55.6293 16.0028
RightHand  -2.5989 6.92007 -24.5607
LeftUpLeg  -37.3083 17.0822 -16.2516
LeftLeg  32.0312 -9.69102 -6.22088
LeftFoot  17.8423 1.28524 -5.72946
LeftToes  1.06246e-005 4.65855e-005 -8.18502e-006
158
root  24.5371 34.5447 -20.5186 -11.9313 -70.3161 3.33568
RightUpLeg  2.24812 -2.3959 2.4384
RightLeg  56.4226 -8.50474 -14.0531
RightFoot  -37.8046 2.56986 11.954
RightToes  0.000482159 0.542163 -0.142577
Spine  30.9056 2.34926 11.5571
Spine1  -12.1774 5.62929 -13.7158
HEad  -54.067 -0.427709 -8.18057
LeftShoulder1  10.9538 -16.0981 -48.7784
LeftArm  -16.9093 30.0669 -19.9492
LeftForeArm  55.4019 -66.3491 -19.8159
LeftHand  -0.25398 0.0180481 5.50724
RightShoulder  6.63493 10.5441 41.0324
RightArm  -3.89853 9.89042 30.8639
RightForeArm  7.88531 53.8942 14.8815
RightHand  -2.77905 7.50355 -25.0345
LeftUpLeg  -39.9696 15.1203 -15.3553
LeftLeg  35.1349 -12.6981 -9.14896
LeftFoot  14.3479 4.89391 -21.7358
LeftToes  1.06246e-005 4.65855e-005 -8.18502e-006
159
root  26.4755 34.5993 -20.6626 -12.3452 -67.0762 4.00826
RightUpLeg  -1.07464 -4.15664 2.07091
RightLeg  56.7318 -11.7391 -18.9353
RightFoot  -39.2753 1.82978 8.38718
RightToes  0.000482159 0.542163 -0.142577
Spine  31.7318 0.289109 9.50233
Spine1  -12.6962 3.02643 -13.0005
HEad  -57.2427 -1.36334 -7.18191
LeftShoulder1  10.3188 -15.5814 -47.1881
LeftArm  -19.2653 24.0312 -22.5364
LeftForeArm  58.3933 -68.1476 -21.6281
LeftHand  -0.25398 0.0180481 5.50724
RightShoulder  6.91842 11.1451 41.0331
RightArm  -0.760317 17.5964 33.5228
RightForeArm  8.30101 53.5023 14.6201
RightHand  -3.17439 8.56711 -26.387
LeftUpLeg  -42.0328 12.918 -12.8443
LeftLeg  43.9662 -8.79568 -8.36141
LeftFoot  6.08874 3.26035 -20.6255
LeftToes  1.06246e-005 4.65855e-005 -8.18502e-006
160
root  28.2827 34.7228 -20.7523 -10.6721 -63.7176 2.41353
RightUpLeg  -4.79976 -9.04044 0.412192
RightLeg  57.731 -11.3653 -19.0384
RightFoot  -37.5997 1.48734 7.48451
RightToes  0.000482159 0.542163 -0.142577
Spine  32.0003 -0.753742 6.5808
Spine1  -12.9014 1.16227 -9.33075
HEad  -58.694 -1.95789 -6.17992
LeftShoulder1  10.2429 -15.6364 -46.6916
LeftArm  -18.8534 17.5893 -23.692
LeftForeArm  63.2516 -70.321 -24.1574
LeftHand  -0.25398 0.0180481 5.50724
RightShoulder  6.96003 11.6025 39.9351
RightArm  1.6484 20.8566 35.6956
RightForeArm  9.25466 55.3464 15.6621
RightHand  -3.23372 8.63507 -26.7224
LeftUpLeg  -43.1678 11.6432 -8.67409
LeftLeg  55.5674 -1.504 -1.76419
LeftFoot  -0.791382 0.92337 -10.2784
LeftToes  1.06246e-005 4.65855e-005 -8.18502e-006
161
root  29.8291 34.7701 -20.7378 -8.39091 -62.0495 0.0965881
RightUpLeg  -7.94691 -12.3882 -0.79928
RightLeg  58.3781 -9.44723 -16.535
RightFoot  -35.9218 1.43629 7.70835
RightToes  0.000482159 0.542163 -0.142577
Spine  31.3383 -0.741862 3.72721
Spine1  -12.8762 0.377544 -5.57502
HEad  -58.7872 -2.17421 -4.63788
LeftShoulder1  10.2915 -16.1056 -45.7622
LeftArm  -17.0601 12.1959 -23.9947
LeftForeArm  70.1234 -73.2067 -28.7744
LeftHand  -0.25398 0.0180481 5.50724
RightShoulder  6.96143 11.8118 39.3452
RightArm  3.71105 20.69 36.9587
RightForeArm  12.0225 58.6719 17.7246
RightHand  -2.89084 7.77016 -25.5013
LeftUpLeg  -42.0097 11.2119 -1.50165
LeftLeg  66.4961 1.48716 4.13643
LeftFoot  -4.04442 0.385492 -5.99576
LeftToes  1.06246e-005 4.65855e-005 -8.18502e-006
162
root  31.2389 34.8654 -20.6868 -6.22096 -61.6977 -1.77116
RightUpLeg  -11.1558 -13.4654 -1.11309
RightLeg  58.5423 -8.39954 -14.9495
RightFoot  -34.0321 1.14959 6.8708
RightToes  0.000482159 0.542163 -0.142577
Spine  30.8791 -0.507449 0.443779
Spine1  -13.6906 -0.167449 -2.712
HEad  -58.4681 -1.94289 -2.70364
LeftShoulder1  10.1277 -16.467 -44.1457
LeftArm  -15.3005 8.92719 -23.5948
LeftForeArm  80.4967 -76.942 -38.9302
LeftHand  -0.25398 0.0180481 5.50724
RightShoulder  7.00188 11.8711 39.4292
RightArm  5.95251 18.1671 38.3913
RightForeArm  17.4282 62.6199 20.6263
RightHand  -2.58332 7.13035 -24.0335
LeftUpLeg  -37.9219 10.6728 7.38864
LeftLeg  73.3237 0.827392 4.15542
LeftFoot  -6.51096 0.359536 -7.53946
LeftToes  1.06246e-005 4.65855e-005 -8.18502e-006
163
root  32.576 35.0239 -20.6109 -3.89078 -61.5961 -2.9899
RightUpLeg  -14.8483 -13.7356 -0.955813
RightLeg  58.3131 -8.43552 -14.8713
RightFoot  -31.6273 0.845927 5.93743
RightToes  0.000482159 0.542163 -0.142577
Spine  30.5255 -0.519614 -3.35838
Spine1  -15.2308 -1.05652 -0.71362
HEad  -58.4377 -1.74629 -0.582259
LeftShoulder1  9.6285 -16.4198 -41.9405
LeftArm  -14.162 7.27717 -22.9785
LeftForeArm  100.84 -80.4368 -60.3812
LeftHand  -0.25398 0.0180481 5.50724
RightShoulder  7.08935 11.8917 39.9111
RightArm  8.03595 13.7916 39.9127
RightForeArm  23.8593 66.9284 25.0553
RightHand  -2.55166 7.17215 -23.6677
LeftUpLeg  -32.1642 9.64079 15.4819
LeftLeg  74.9929 0.863153 4.87249
LeftFoot  -9.07882 0.171766 -5.78774
LeftToes  1.06246e-005 4.65855e-005 -8.18502e-006
164
root  33.8842 35.1482 -20.4855 -1.61395 -61.5186 -3.68311
RightUpLeg  -18.7486 -13.5347 -1.00965
RightLeg  57.9369 -8.46523 -14.7057
RightFoot  -29.3033 0.767801 6.12291
RightToes  0.000482159 0.542163 -0.142577
Spine  29.5011 -0.647263 -6.99995
Spine1  -15.9558 -1.92334 0.255696
HEad  -58.5663 -2.39554 1.09612
LeftShoulder1  9.10638 -16.2653 -39.8168
LeftArm  -13.5781 5.87015 -22.3781
LeftForeArm  133.244 -81.6527 -93.2853
LeftHand  -0.25398 0.0180481 5.50724
RightShoulder  7.18524 11.9079 40.4549
RightArm  9.67713 8.12976 40.3906
RightForeArm  29.885 71.2718 32.2618
RightHand  -2.5863 7.13336 -24.0499
LeftUpLeg  -25.196 8.77207 21.68
LeftLeg  71.0357 2.74481 9.57996
LeftFoot  -8.86648 0.0653917 -0.894885
LeftToes  1.06246e-005 4.65855e-005 -8.18502e-006
165
root  35.1734 35.213 -20.3249 -0.509842 -61.3684 -3.45572
RightUpLeg  -22.1946 -12.9601 -1.84551
RightLeg  57.5694 -8.14049 -13.9808
RightFoot  -27.2552 0.758957 6.74584
RightToes  0.000482159 0.542163 -0.142577
Spine  28.0196 -0.648747 -10.468
Spine1  -15.1775 -2.52945 -0.0821722
HEad  -58.2674 -4.00041 1.73431
LeftShoulder1  8.76705 -16.1603 -38.4047
LeftArm  -13.2278 3.97912 -22.012
LeftForeArm  159.496 -80.4572 -119.594
LeftHand  -0.25398 0.0180481 5.50724
RightShoulder  7.19383 11.8826 40.5799
RightArm  11.2919 2.42846 39.7016
RightForeArm  37.1696 74.7285 41.9
RightHand  -2.37348 6.23579 -23.7501
LeftUpLeg  -16.3855 8.16402 25.5085
LeftLeg  61.617 6.07106 12.6282
LeftFoot  -7.17093 0.10072 -1.0033
LeftToes  1.06246e-005 4.65855e-005 -8.18502e-006
166
root  36.5063 35.1615 -20.106 -0.344864 -59.886 -2.51103
RightUpLeg  -25.3926 -13.3972 -3.36557
RightLeg  57.8717 -8.13945 -14.1449
RightFoot  -25.0778 0.692982 7.1622
RightToes  0.000482159 0.542163 -0.142577
Spine  27.4051 -0.707962 -13.8672
Spine1  -14.1504 -3.36169 -0.559828
HEad  -57.1672 -5.5101 2.0778
LeftShoulder1  8.47 -15.836 -37.648
LeftArm  -12.5212 1.28643 -23.0392
LeftForeArm  170.887 -78.9781 -131.379
LeftHand  -0.25398 0.0180481 5.50724
RightShoulder  7.02554 11.79 39.8051
RightArm  12.5663 -2.58081 38.3923
RightForeArm  46.8385 76.8619 51.208
RightHand  -1.98252 4.88449 -22.4898
LeftUpLeg  -8.22134 7.27919 26.6348
LeftLeg  49.8982 8.5714 11.2888
LeftFoot  -9.58791 0.13269 -10.7937
LeftToes  1.06246e-005 4.65855e-005 -8.18502e-006
167
root  38.1045 34.883 -19.8343 0.761261 -55.9371 -2.21037
RightUpLeg  -29.3165 -15.5738 -4.86232
RightLeg  59.2584 -8.60064 -15.6924
RightFoot  -22.5722 0.606478 7.71975
RightToes  0.000482159 0.542163 -0.142577
Spine  28.6615 -1.04014 -16.0581
Spine1  -13.6784 -4.56372 0.275153
HEad  -56.1916 -6.62175 2.88699
LeftShoulder1  8.18739 -15.4293 -37.119
LeftArm  -10.8542 -2.91308 -26.6668
LeftForeArm  171.613 -78.9189 -131.706
LeftHand  -0.25398 0.0180481 5.50724
RightShoulder  6.76698 11.6854 38.4841
RightArm  12.022 -7.34298 36.3365
RightForeArm  57.0172 78.1931 59.7872
RightHand  -1.87732 4.55391 -22.0171
LeftUpLeg  -6.17057 6.2204 26.1188
LeftLeg  42.3357 7.45594 7.57879
LeftFoot  -17.12 -1.12169 -24.1231
LeftToes  1.06246e-005 4.65855e-005 -8.18502e-006
168
root  39.8837 34.5739 -19.6535 2.4377 -50.8676 -2.47791
RightUpLeg  -33.0071 -17.5527 -6.246
RightLeg  59.9626 -8.57017 -16.0756
RightFoot  -20.0848 0.503534 8.35618
RightToes  0.000482159 0.542163 -0.142577
Spine  31.1112 -0.873617 -16.6809
Spine1  -12.6905 -5.16529 1.17398
HEad  -56.4902 -8.03117 3.88288
LeftShoulder1  8.1685 -15.4781 -36.913
LeftArm  -8.10475 -8.68444 -31.8815
LeftForeArm  164.435 -80.2119 -122.644
LeftHand  -0.25398 0.0180481 5.50724
RightShoulder  6.58615 11.6037 37.564
RightArm  8.97736 -11.8448 34.0681
RightForeArm  62.3157 78.8297 67.3606
RightHand  -2.29837 5.75866 -23.924
LeftUpLeg  -11.5108 5.84685 24.8839
LeftLeg  43.09 3.91596 4.26167
LeftFoot  -23.6494 -2.92428 -28.3027
LeftToes  1.06246e-005 4.65855e-005 -8.18502e-006
169
root  41.5281 34.4005 -19.5381 3.35977 -47.4017 -2.86058
RightUpLeg  -34.9717 -16.8154 -7.87971
RightLeg  58.9016 -7.0008 -12.8234
RightFoot  -18.401 0.44968 9.30419
RightToes  0.000482159 0.542163 -0.142577
Spine  33.372 0.226345 -16.2258
Spine1  -10.2968 -4.43743 0.626776
HEad  -56.9699 -9.36284 4.10618
LeftShoulder1  8.48619 -15.9093 -37.5667
LeftArm  -4.96619 -14.0288 -35.6612
LeftForeArm  152.343 -81.3122 -109.24
LeftHand  -0.25398 0.0180481 5.50724
RightShoulder  6.50653 11.4919 37.366
RightArm  4.9305 -14.4349 33.5863
RightForeArm  54.8767 78.3711 65.3119
RightHand  -2.97042 7.3762 -26.9532
LeftUpLeg  -18.6446 6.15015 23.2547
LeftLeg  48.4479 1.94995 2.81764
LeftFoot  -25.4529 -2.93638 -24.5276
LeftToes  1.06246e-005 4.65855e-005 -8.18502e-006
170
root  42.8545 34.374 -19.4023 3.49107 -46.2596 -3.23962
RightUpLeg  -35.3566 -13.6632 -9.47697
RightLeg  57.0209 -4.36936 -7.67575
RightFoot  -17.6722 0.48358 10.8753
RightToes  0.000482159 0.542163 -0.142577
Spine  34.9101 1.53536 -15.6156
Spine1  -7.63128 -3.09679 -0.926847
HEad  -55.2368 -9.60094 3.02228
LeftShoulder1  8.80204 -16.0199 -38.8872
LeftArm  -2.7453 -16.2953 -36.1842
LeftForeArm  142.708 -81.6121 -100.545
LeftHand  -0.25398 0.0180481 5.50724
RightShoulder  6.55921 11.4517 37.8175
RightArm  2.35949 -13.8651 35.2412
RightForeArm  38.1206 76.166 50.2483
RightHand  -3.31811 8.10982 -28.402
LeftUpLeg  -22.6643 6.82995 21.7146
LeftLeg  52.0795 1.40591 2.41597
LeftFoot  -24.5367 -2.26896 -20.6925
LeftToes  1.06246e-005 4.65855e-005 -8.18502e-006
